<svg width="20" height="20" viewBox="0 0 20 20" fill="none" xmlns="http://www.w3.org/2000/svg">
<g clip-path="url(#clip0_207_1341)">
<path d="M10 19.6875C15.3438 19.6875 19.6875 15.3438 19.6875 10C19.6875 4.65625 15.3438 0.3125 10 0.3125C4.65625 0.3125 0.3125 4.65625 0.3125 10C0.3125 15.3438 4.65625 19.6875 10 19.6875ZM2.5 13.8594L6.4375 13.8281C6.875 15.4062 7.60937 16.9375 8.60938 18.3125C5.9375 17.875 3.70312 16.1719 2.5 13.8594ZM7.4375 7.34375H12.3438C12.7031 9.0625 12.7031 10.8281 12.375 12.5469L7.4375 12.5781C7.07812 10.8438 7.07812 9.0625 7.4375 7.34375ZM9.89062 17.9531C8.90625 16.6875 8.1875 15.2969 7.75 13.8281L12.0469 13.7969C11.5938 15.2656 10.875 16.6719 9.89062 17.9531ZM11.1406 18.3594C12.1719 16.9531 12.9062 15.4062 13.3438 13.7812L17.5469 13.75C16.3281 16.2031 13.9531 17.9688 11.1406 18.3594ZM18.4375 10C18.4375 10.875 18.2969 11.7188 18.0625 12.5L13.6406 12.5312C13.9531 10.8125 13.9375 9.0625 13.6094 7.34375H18C18.2812 8.17188 18.4375 9.07812 18.4375 10ZM17.4688 6.09375H13.3125C12.8594 4.53125 12.1406 3.01562 11.1406 1.64062C13.9063 2.01562 16.2344 3.71875 17.4688 6.09375ZM12.0156 6.09375H7.76562C8.21875 4.65625 8.92188 3.29688 9.89062 2.04688C10.8594 3.29688 11.5625 4.65625 12.0156 6.09375ZM8.60938 1.6875C7.625 3.04688 6.90625 4.53125 6.46875 6.09375H2.53125C3.73438 3.79688 5.95312 2.125 8.60938 1.6875ZM6.17188 7.34375C5.84375 9.07812 5.84375 10.8438 6.15625 12.5781L1.98438 12.6094C1.70312 11.7812 1.5625 10.9062 1.5625 10C1.5625 9.07812 1.71875 8.17188 2 7.34375H6.17188Z" fill="black" stroke="black" stroke-width="0.2"/>
</g>
<defs>
<clipPath id="clip0_207_1341">
<rect width="20" height="20" fill="white"/>
</clipPath>
</defs>
</svg>
